<mxfile host="65bd71144e">
    <diagram id="Wjg02kEFPzsURr2Egd1N" name="Page-1">
        <mxGraphModel dx="569" dy="703" grid="1" gridSize="10" guides="1" tooltips="1" connect="1" arrows="1" fold="1" page="1" pageScale="1" pageWidth="827" pageHeight="1169" math="0" shadow="0">
            <root>
                <mxCell id="0"/>
                <mxCell id="1" parent="0"/>
                <mxCell id="2" value="User&lt;br&gt;" style="shape=umlActor;verticalLabelPosition=bottom;verticalAlign=top;html=1;outlineConnect=0;" parent="1" vertex="1">
                    <mxGeometry x="250" y="270" width="30" height="60" as="geometry"/>
                </mxCell>
                <mxCell id="4" value="" style="rounded=1;whiteSpace=wrap;html=1;" parent="1" vertex="1">
                    <mxGeometry x="150" y="460" width="550" height="180" as="geometry"/>
                </mxCell>
                <mxCell id="5" value="EC2" style="text;html=1;align=center;verticalAlign=middle;resizable=0;points=[];autosize=1;strokeColor=none;fillColor=none;" parent="1" vertex="1">
                    <mxGeometry x="150" y="465" width="50" height="30" as="geometry"/>
                </mxCell>
                <mxCell id="13" style="edgeStyle=none;html=1;entryX=0.5;entryY=0;entryDx=0;entryDy=0;entryPerimeter=0;" parent="1" source="6" target="12" edge="1">
                    <mxGeometry relative="1" as="geometry"/>
                </mxCell>
                <mxCell id="8" style="edgeStyle=none;html=1;entryX=0.5;entryY=0;entryDx=0;entryDy=0;" parent="1" source="2" target="52" edge="1">
                    <mxGeometry relative="1" as="geometry"/>
                </mxCell>
                <mxCell id="12" value="Postgres" style="shape=cylinder3;whiteSpace=wrap;html=1;boundedLbl=1;backgroundOutline=1;size=15;" parent="1" vertex="1">
                    <mxGeometry x="230" y="670" width="60" height="80" as="geometry"/>
                </mxCell>
                <mxCell id="14" value="MongoDB" style="shape=cylinder3;whiteSpace=wrap;html=1;boundedLbl=1;backgroundOutline=1;size=15;" parent="1" vertex="1">
                    <mxGeometry x="420" y="670" width="60" height="80" as="geometry"/>
                </mxCell>
                <mxCell id="21" style="edgeStyle=none;html=1;entryX=0.5;entryY=0;entryDx=0;entryDy=0;entryPerimeter=0;exitX=0.433;exitY=0.967;exitDx=0;exitDy=0;exitPerimeter=0;" parent="1" source="44" target="14" edge="1">
                    <mxGeometry relative="1" as="geometry"/>
                </mxCell>
                <mxCell id="17" value="auth" style="text;html=1;align=center;verticalAlign=middle;resizable=0;points=[];autosize=1;strokeColor=none;fillColor=none;" parent="1" vertex="1">
                    <mxGeometry x="255" y="405" width="50" height="30" as="geometry"/>
                </mxCell>
                <mxCell id="19" value="websocket" style="text;html=1;align=center;verticalAlign=middle;resizable=0;points=[];autosize=1;strokeColor=none;fillColor=none;" parent="1" vertex="1">
                    <mxGeometry x="400" y="405" width="80" height="30" as="geometry"/>
                </mxCell>
                <mxCell id="18" style="edgeStyle=none;html=1;entryX=0.5;entryY=0;entryDx=0;entryDy=0;" parent="1" source="2" target="56" edge="1">
                    <mxGeometry relative="1" as="geometry">
                        <Array as="points">
                            <mxPoint x="440" y="300"/>
                        </Array>
                    </mxGeometry>
                </mxCell>
                <mxCell id="49" value="" style="group" parent="1" vertex="1" connectable="0">
                    <mxGeometry x="380" y="570" width="140" height="50" as="geometry"/>
                </mxCell>
                <mxCell id="39" value="" style="group" parent="49" vertex="1" connectable="0">
                    <mxGeometry width="120" height="30" as="geometry"/>
                </mxCell>
                <mxCell id="16" value="chat server" style="rounded=0;whiteSpace=wrap;html=1;" parent="39" vertex="1">
                    <mxGeometry width="120" height="30" as="geometry"/>
                </mxCell>
                <mxCell id="20" value="" style="sketch=0;aspect=fixed;html=1;points=[];align=center;image;fontSize=12;image=img/lib/mscae/Docker.svg;" parent="39" vertex="1">
                    <mxGeometry width="24.39" height="20" as="geometry"/>
                </mxCell>
                <mxCell id="40" value="" style="group" parent="49" vertex="1" connectable="0">
                    <mxGeometry x="10" y="10" width="120" height="30" as="geometry"/>
                </mxCell>
                <mxCell id="41" value="chat server" style="rounded=0;whiteSpace=wrap;html=1;" parent="40" vertex="1">
                    <mxGeometry width="120" height="30" as="geometry"/>
                </mxCell>
                <mxCell id="42" value="" style="sketch=0;aspect=fixed;html=1;points=[];align=center;image;fontSize=12;image=img/lib/mscae/Docker.svg;" parent="40" vertex="1">
                    <mxGeometry width="24.39" height="20" as="geometry"/>
                </mxCell>
                <mxCell id="43" value="" style="group" parent="49" vertex="1" connectable="0">
                    <mxGeometry x="20" y="20" width="120" height="30" as="geometry"/>
                </mxCell>
                <mxCell id="44" value="chat server" style="rounded=0;whiteSpace=wrap;html=1;" parent="43" vertex="1">
                    <mxGeometry width="120" height="30" as="geometry"/>
                </mxCell>
                <mxCell id="45" value="" style="sketch=0;aspect=fixed;html=1;points=[];align=center;image;fontSize=12;image=img/lib/mscae/Docker.svg;" parent="43" vertex="1">
                    <mxGeometry width="24.39" height="20" as="geometry"/>
                </mxCell>
                <mxCell id="50" value="" style="group" parent="1" vertex="1" connectable="0">
                    <mxGeometry x="200" y="570" width="140" height="50" as="geometry"/>
                </mxCell>
                <mxCell id="26" value="" style="group" parent="50" vertex="1" connectable="0">
                    <mxGeometry width="120" height="30" as="geometry"/>
                </mxCell>
                <mxCell id="6" value="API" style="rounded=0;whiteSpace=wrap;html=1;" parent="26" vertex="1">
                    <mxGeometry width="120" height="30" as="geometry"/>
                </mxCell>
                <mxCell id="7" value="" style="sketch=0;aspect=fixed;html=1;points=[];align=center;image;fontSize=12;image=img/lib/mscae/Docker.svg;" parent="26" vertex="1">
                    <mxGeometry width="24.39" height="20" as="geometry"/>
                </mxCell>
                <mxCell id="27" value="" style="group" parent="50" vertex="1" connectable="0">
                    <mxGeometry x="10" y="10" width="120" height="30" as="geometry"/>
                </mxCell>
                <mxCell id="28" value="API" style="rounded=0;whiteSpace=wrap;html=1;" parent="27" vertex="1">
                    <mxGeometry width="120" height="30" as="geometry"/>
                </mxCell>
                <mxCell id="29" value="" style="sketch=0;aspect=fixed;html=1;points=[];align=center;image;fontSize=12;image=img/lib/mscae/Docker.svg;" parent="27" vertex="1">
                    <mxGeometry width="24.39" height="20" as="geometry"/>
                </mxCell>
                <mxCell id="30" value="" style="group" parent="50" vertex="1" connectable="0">
                    <mxGeometry x="20" y="20" width="120" height="30" as="geometry"/>
                </mxCell>
                <mxCell id="31" value="API" style="rounded=0;whiteSpace=wrap;html=1;" parent="30" vertex="1">
                    <mxGeometry width="120" height="30" as="geometry"/>
                </mxCell>
                <mxCell id="32" value="" style="sketch=0;aspect=fixed;html=1;points=[];align=center;image;fontSize=12;image=img/lib/mscae/Docker.svg;" parent="30" vertex="1">
                    <mxGeometry width="24.39" height="20" as="geometry"/>
                </mxCell>
                <mxCell id="51" value="" style="group" parent="1" vertex="1" connectable="0">
                    <mxGeometry x="205" y="480" width="120" height="30" as="geometry"/>
                </mxCell>
                <mxCell id="52" value="Loadbalance" style="rounded=0;whiteSpace=wrap;html=1;" parent="51" vertex="1">
                    <mxGeometry width="120" height="30" as="geometry"/>
                </mxCell>
                <mxCell id="55" style="edgeStyle=none;html=1;entryX=0.5;entryY=0;entryDx=0;entryDy=0;" parent="1" source="52" target="6" edge="1">
                    <mxGeometry relative="1" as="geometry"/>
                </mxCell>
                <mxCell id="58" style="edgeStyle=none;html=1;entryX=0.5;entryY=0;entryDx=0;entryDy=0;" parent="1" source="56" target="16" edge="1">
                    <mxGeometry relative="1" as="geometry"/>
                </mxCell>
                <mxCell id="56" value="Zookeeper" style="rounded=0;whiteSpace=wrap;html=1;" parent="1" vertex="1">
                    <mxGeometry x="380" y="480" width="120" height="30" as="geometry"/>
                </mxCell>
                <mxCell id="61" value="" style="group" parent="1" vertex="1" connectable="0">
                    <mxGeometry x="590" y="545" width="60" height="80" as="geometry"/>
                </mxCell>
                <mxCell id="59" value="Redis" style="shape=cylinder3;whiteSpace=wrap;html=1;boundedLbl=1;backgroundOutline=1;size=15;" parent="61" vertex="1">
                    <mxGeometry width="60" height="80" as="geometry"/>
                </mxCell>
                <mxCell id="62" style="edgeStyle=none;html=1;" parent="61" source="60" target="59" edge="1">
                    <mxGeometry relative="1" as="geometry"/>
                </mxCell>
                <mxCell id="60" value="" style="verticalLabelPosition=bottom;html=1;verticalAlign=top;align=center;strokeColor=none;fillColor=#00BEF2;shape=mxgraph.azure.queue_generic;pointerEvents=1;" parent="61" vertex="1">
                    <mxGeometry x="5" y="60" width="50" height="15" as="geometry"/>
                </mxCell>
                <mxCell id="63" style="edgeStyle=none;html=1;entryX=0;entryY=1;entryDx=0;entryDy=-15;entryPerimeter=0;" parent="1" source="44" target="59" edge="1">
                    <mxGeometry relative="1" as="geometry"/>
                </mxCell>
                <mxCell id="64" style="edgeStyle=none;html=1;entryX=1;entryY=0.25;entryDx=0;entryDy=0;exitX=0;exitY=0;exitDx=0;exitDy=52.5;exitPerimeter=0;" parent="1" source="59" target="44" edge="1">
                    <mxGeometry relative="1" as="geometry"/>
                </mxCell>
                <mxCell id="66" value="" style="rounded=0;whiteSpace=wrap;html=1;" parent="1" vertex="1">
                    <mxGeometry x="410" y="770" width="280" height="430" as="geometry"/>
                </mxCell>
                <mxCell id="67" value="" style="rounded=0;whiteSpace=wrap;html=1;" parent="1" vertex="1">
                    <mxGeometry x="417" y="780" width="263" height="400" as="geometry"/>
                </mxCell>
                <mxCell id="68" value="chat_db" style="text;html=1;align=center;verticalAlign=middle;resizable=0;points=[];autosize=1;strokeColor=none;fillColor=none;" parent="1" vertex="1">
                    <mxGeometry x="410" y="780" width="70" height="30" as="geometry"/>
                </mxCell>
                <mxCell id="69" value="" style="rounded=0;whiteSpace=wrap;html=1;" parent="1" vertex="1">
                    <mxGeometry x="430" y="810" width="240" height="310" as="geometry"/>
                </mxCell>
                <mxCell id="70" value="collection #1" style="text;html=1;align=center;verticalAlign=middle;resizable=0;points=[];autosize=1;strokeColor=none;fillColor=none;" parent="1" vertex="1">
                    <mxGeometry x="430" y="810" width="90" height="30" as="geometry"/>
                </mxCell>
                <mxCell id="75" value="{&lt;br&gt;&lt;div style=&quot;&quot;&gt;&lt;span style=&quot;background-color: initial;&quot;&gt;&lt;span style=&quot;white-space: pre;&quot;&gt;&#9;&lt;/span&gt;chat_channel_id:&lt;/span&gt;&lt;/div&gt;&lt;div style=&quot;&quot;&gt;&lt;span style=&quot;background-color: initial;&quot;&gt;&lt;span style=&quot;white-space: pre;&quot;&gt;&#9;&lt;/span&gt;members: []&lt;br&gt;&lt;/span&gt;&lt;/div&gt;&lt;div style=&quot;&quot;&gt;&lt;span style=&quot;background-color: initial;&quot;&gt;&lt;span style=&quot;white-space: pre;&quot;&gt;&#9;&lt;/span&gt;messages:&lt;br&gt;&lt;/span&gt;&lt;/div&gt;&lt;div style=&quot;&quot;&gt;&lt;span style=&quot;background-color: initial;&quot;&gt;&lt;span style=&quot;white-space: pre;&quot;&gt;&#9;&lt;/span&gt;&lt;span style=&quot;white-space: pre;&quot;&gt;&#9;&lt;/span&gt;[&lt;/span&gt;&lt;/div&gt;&lt;div style=&quot;&quot;&gt;&lt;span style=&quot;background-color: initial;&quot;&gt;&lt;span style=&quot;white-space: pre;&quot;&gt;&#9;&lt;/span&gt;&lt;span style=&quot;white-space: pre;&quot;&gt;&#9;&lt;/span&gt;&lt;span style=&quot;white-space: pre;&quot;&gt;&#9;&lt;/span&gt;{&lt;/span&gt;&lt;/div&gt;&lt;div style=&quot;&quot;&gt;&lt;span style=&quot;background-color: initial;&quot;&gt;&lt;span style=&quot;white-space: pre;&quot;&gt;&#9;&lt;/span&gt;&lt;span style=&quot;white-space: pre;&quot;&gt;&#9;&lt;/span&gt;&lt;span style=&quot;white-space: pre;&quot;&gt;&#9;&lt;/span&gt;&lt;span style=&quot;white-space: pre;&quot;&gt;&#9;&lt;/span&gt;msg_id:&amp;nbsp;&lt;br&gt;&lt;/span&gt;&lt;/div&gt;&lt;div style=&quot;&quot;&gt;&lt;span style=&quot;white-space: pre;&quot;&gt;&#9;&lt;/span&gt;&lt;span style=&quot;white-space: pre;&quot;&gt;&#9;&lt;/span&gt;&lt;span style=&quot;white-space: pre;&quot;&gt;&#9;&lt;/span&gt;&lt;span style=&quot;white-space: pre;&quot;&gt;&#9;&lt;/span&gt;msg_from:&lt;br&gt;&lt;/div&gt;&lt;div style=&quot;&quot;&gt;&lt;span style=&quot;white-space: pre;&quot;&gt;&#9;&lt;/span&gt;&lt;span style=&quot;white-space: pre;&quot;&gt;&#9;&lt;/span&gt;&lt;span style=&quot;white-space: pre;&quot;&gt;&#9;&lt;/span&gt;&lt;span style=&quot;white-space: pre;&quot;&gt;&#9;&lt;/span&gt;msg_to:&lt;br&gt;&lt;/div&gt;&lt;div style=&quot;&quot;&gt;&lt;span style=&quot;white-space: pre;&quot;&gt;&#9;&lt;/span&gt;&lt;span style=&quot;white-space: pre;&quot;&gt;&#9;&lt;/span&gt;&lt;span style=&quot;white-space: pre;&quot;&gt;&#9;&lt;/span&gt;&lt;span style=&quot;white-space: pre;&quot;&gt;&#9;&lt;/span&gt;content:&amp;nbsp;&lt;br&gt;&lt;/div&gt;&lt;div style=&quot;&quot;&gt;&lt;span style=&quot;white-space: pre;&quot;&gt;&#9;&lt;/span&gt;&lt;span style=&quot;white-space: pre;&quot;&gt;&#9;&lt;/span&gt;&lt;span style=&quot;white-space: pre;&quot;&gt;&#9;&lt;/span&gt;&lt;span style=&quot;white-space: pre;&quot;&gt;&#9;&lt;/span&gt;created_at:&amp;nbsp;&lt;br&gt;&lt;/div&gt;&lt;div style=&quot;&quot;&gt;&lt;span style=&quot;white-space: pre;&quot;&gt;&#9;&lt;/span&gt;&lt;span style=&quot;white-space: pre;&quot;&gt;&#9;&lt;/span&gt;&lt;span style=&quot;white-space: pre;&quot;&gt;&#9;&lt;/span&gt;&lt;span style=&quot;white-space: pre;&quot;&gt;&#9;&lt;/span&gt;&lt;br&gt;&lt;/div&gt;&lt;div style=&quot;&quot;&gt;&lt;span style=&quot;background-color: initial;&quot;&gt;&lt;span style=&quot;white-space: pre;&quot;&gt;&#9;&lt;/span&gt;&lt;span style=&quot;white-space: pre;&quot;&gt;&#9;&lt;/span&gt;&lt;span style=&quot;white-space: pre;&quot;&gt;&#9;&lt;/span&gt;},&lt;br&gt;&lt;/span&gt;&lt;/div&gt;&lt;div style=&quot;&quot;&gt;&lt;span style=&quot;background-color: initial;&quot;&gt;&lt;span style=&quot;white-space: pre;&quot;&gt;&#9;&lt;/span&gt;&lt;span style=&quot;white-space: pre;&quot;&gt;&#9;&lt;/span&gt;&lt;span style=&quot;white-space: pre;&quot;&gt;&#9;&lt;/span&gt;....&lt;br&gt;&lt;/span&gt;&lt;/div&gt;&lt;div style=&quot;&quot;&gt;&lt;span style=&quot;background-color: initial;&quot;&gt;&lt;span style=&quot;white-space: pre;&quot;&gt;&#9;&lt;/span&gt;&lt;span style=&quot;white-space: pre;&quot;&gt;&#9;&lt;/span&gt;]&lt;br&gt;&lt;/span&gt;&lt;/div&gt;}&lt;br&gt;..." style="text;html=1;align=left;verticalAlign=middle;resizable=0;points=[];autosize=1;strokeColor=none;fillColor=none;" parent="1" vertex="1">
                    <mxGeometry x="460" y="825" width="190" height="260" as="geometry"/>
                </mxCell>
                <mxCell id="77" value="..." style="text;html=1;align=center;verticalAlign=middle;resizable=0;points=[];autosize=1;strokeColor=none;fillColor=none;" parent="1" vertex="1">
                    <mxGeometry x="430" y="1140" width="30" height="30" as="geometry"/>
                </mxCell>
                <mxCell id="78" value="&lt;div style=&quot;&quot;&gt;&lt;span style=&quot;background-color: initial;&quot;&gt;{&lt;/span&gt;&lt;/div&gt;&lt;div style=&quot;&quot;&gt;&lt;span style=&quot;background-color: initial;&quot;&gt;&lt;br&gt;&lt;/span&gt;&lt;/div&gt;&lt;blockquote style=&quot;margin: 0 0 0 40px; border: none; padding: 0px;&quot;&gt;&lt;span style=&quot;background-color: initial;&quot;&gt;&lt;div style=&quot;&quot;&gt;&lt;span style=&quot;background-color: initial;&quot;&gt;chat_channel_id:&lt;/span&gt;&lt;/div&gt;&lt;div style=&quot;&quot;&gt;&lt;br&gt;&lt;/div&gt;&lt;/span&gt;&lt;span style=&quot;&quot;&gt;&lt;div style=&quot;&quot;&gt;&lt;span style=&quot;background-color: initial;&quot;&gt;msg_from:&lt;/span&gt;&lt;/div&gt;&lt;/span&gt;&lt;span style=&quot;&quot;&gt;&lt;div style=&quot;&quot;&gt;&lt;span style=&quot;background-color: initial;&quot;&gt;msg_to:&lt;/span&gt;&lt;/div&gt;&lt;/span&gt;&lt;span style=&quot;&quot;&gt;&lt;div style=&quot;&quot;&gt;&lt;span style=&quot;background-color: initial;&quot;&gt;content:&amp;nbsp;&lt;/span&gt;&lt;/div&gt;&lt;/span&gt;&lt;div style=&quot;&quot;&gt;&lt;br&gt;&lt;/div&gt;&lt;/blockquote&gt;&lt;div style=&quot;&quot;&gt;&lt;span style=&quot;&quot;&gt;&#9;&lt;/span&gt;&lt;span style=&quot;&quot;&gt;&#9;&lt;/span&gt;&lt;span style=&quot;&quot;&gt;&#9;&lt;/span&gt;&lt;span style=&quot;&quot;&gt;&#9;&lt;/span&gt;&lt;br&gt;&lt;/div&gt;&lt;div style=&quot;&quot;&gt;&lt;span style=&quot;background-color: initial;&quot;&gt;&lt;span style=&quot;&quot;&gt;&#9;&lt;/span&gt;&lt;span style=&quot;&quot;&gt;&#9;&lt;/span&gt;&lt;span style=&quot;&quot;&gt;&#9;&lt;/span&gt;}&lt;/span&gt;&lt;/div&gt;" style="text;html=1;align=left;verticalAlign=middle;resizable=0;points=[];autosize=1;strokeColor=none;fillColor=none;" parent="1" vertex="1">
                    <mxGeometry x="450" y="260" width="150" height="160" as="geometry"/>
                </mxCell>
            </root>
        </mxGraphModel>
    </diagram>
    <diagram id="Fj8Vx3k_UGOuQQLF7mP4" name="chat_ schemas">
        <mxGraphModel dx="286" dy="346" grid="1" gridSize="10" guides="1" tooltips="1" connect="1" arrows="1" fold="1" page="1" pageScale="1" pageWidth="827" pageHeight="1169" math="0" shadow="0">
            <root>
                <mxCell id="0"/>
                <mxCell id="1" parent="0"/>
                <mxCell id="ht2aI7RJw9MWsQLCDF85-11" style="edgeStyle=none;html=1;entryX=0;entryY=0.75;entryDx=0;entryDy=0;" parent="1" source="6f-1xvgcGnBei8sqXpM6-1" target="ht2aI7RJw9MWsQLCDF85-3" edge="1">
                    <mxGeometry relative="1" as="geometry"/>
                </mxCell>
                <mxCell id="6f-1xvgcGnBei8sqXpM6-1" value="User&lt;br&gt;" style="shape=umlActor;verticalLabelPosition=bottom;verticalAlign=top;html=1;outlineConnect=0;" parent="1" vertex="1">
                    <mxGeometry x="80" y="80" width="30" height="60" as="geometry"/>
                </mxCell>
                <mxCell id="ht2aI7RJw9MWsQLCDF85-1" value="" style="group" parent="1" vertex="1" connectable="0">
                    <mxGeometry x="370" y="90" width="140" height="50" as="geometry"/>
                </mxCell>
                <mxCell id="ht2aI7RJw9MWsQLCDF85-2" value="" style="group" parent="ht2aI7RJw9MWsQLCDF85-1" vertex="1" connectable="0">
                    <mxGeometry width="120" height="30" as="geometry"/>
                </mxCell>
                <mxCell id="ht2aI7RJw9MWsQLCDF85-3" value="chat server" style="rounded=0;whiteSpace=wrap;html=1;" parent="ht2aI7RJw9MWsQLCDF85-2" vertex="1">
                    <mxGeometry width="120" height="30" as="geometry"/>
                </mxCell>
                <mxCell id="ht2aI7RJw9MWsQLCDF85-4" value="" style="sketch=0;aspect=fixed;html=1;points=[];align=center;image;fontSize=12;image=img/lib/mscae/Docker.svg;" parent="ht2aI7RJw9MWsQLCDF85-2" vertex="1">
                    <mxGeometry width="24.39" height="20" as="geometry"/>
                </mxCell>
                <mxCell id="ht2aI7RJw9MWsQLCDF85-5" value="" style="group" parent="ht2aI7RJw9MWsQLCDF85-1" vertex="1" connectable="0">
                    <mxGeometry x="10" y="10" width="120" height="30" as="geometry"/>
                </mxCell>
                <mxCell id="ht2aI7RJw9MWsQLCDF85-6" value="chat server" style="rounded=0;whiteSpace=wrap;html=1;" parent="ht2aI7RJw9MWsQLCDF85-5" vertex="1">
                    <mxGeometry width="120" height="30" as="geometry"/>
                </mxCell>
                <mxCell id="ht2aI7RJw9MWsQLCDF85-7" value="" style="sketch=0;aspect=fixed;html=1;points=[];align=center;image;fontSize=12;image=img/lib/mscae/Docker.svg;" parent="ht2aI7RJw9MWsQLCDF85-5" vertex="1">
                    <mxGeometry width="24.39" height="20" as="geometry"/>
                </mxCell>
                <mxCell id="ht2aI7RJw9MWsQLCDF85-8" value="" style="group" parent="ht2aI7RJw9MWsQLCDF85-1" vertex="1" connectable="0">
                    <mxGeometry x="20" y="20" width="120" height="30" as="geometry"/>
                </mxCell>
                <mxCell id="ht2aI7RJw9MWsQLCDF85-9" value="chat server" style="rounded=0;whiteSpace=wrap;html=1;" parent="ht2aI7RJw9MWsQLCDF85-8" vertex="1">
                    <mxGeometry width="120" height="30" as="geometry"/>
                </mxCell>
                <mxCell id="ht2aI7RJw9MWsQLCDF85-10" value="" style="sketch=0;aspect=fixed;html=1;points=[];align=center;image;fontSize=12;image=img/lib/mscae/Docker.svg;" parent="ht2aI7RJw9MWsQLCDF85-8" vertex="1">
                    <mxGeometry width="24.39" height="20" as="geometry"/>
                </mxCell>
                <mxCell id="WOLURt_JnOcae4hTJIM5-3" style="edgeStyle=none;html=1;" parent="1" edge="1">
                    <mxGeometry relative="1" as="geometry">
                        <mxPoint x="440" y="195" as="targetPoint"/>
                        <mxPoint x="100" y="195" as="sourcePoint"/>
                    </mxGeometry>
                </mxCell>
                <mxCell id="ht2aI7RJw9MWsQLCDF85-14" value="&lt;div style=&quot;color: rgb(225, 228, 232); background-color: rgb(36, 41, 46); font-family: Menlo, Monaco, &amp;quot;Courier New&amp;quot;, monospace; line-height: 18px;&quot;&gt;&lt;span style=&quot;color: #9ecbff;&quot;&gt;retrive_message&lt;/span&gt;&lt;/div&gt;" style="text;html=1;align=center;verticalAlign=middle;resizable=0;points=[];autosize=1;strokeColor=none;fillColor=none;" parent="1" vertex="1">
                    <mxGeometry x="680" y="170" width="130" height="30" as="geometry"/>
                </mxCell>
                <mxCell id="WOLURt_JnOcae4hTJIM5-1" value="&lt;div style=&quot;&quot;&gt;&lt;span style=&quot;background-color: initial;&quot;&gt;{&lt;/span&gt;&lt;/div&gt;&lt;div style=&quot;&quot;&gt;&lt;span style=&quot;background-color: initial;&quot;&gt;&lt;br&gt;&lt;/span&gt;&lt;/div&gt;&lt;blockquote style=&quot;margin: 0 0 0 40px; border: none; padding: 0px;&quot;&gt;&lt;span style=&quot;background-color: initial;&quot;&gt;&lt;div style=&quot;&quot;&gt;&lt;span style=&quot;background-color: initial;&quot;&gt;chat_channel_id:&lt;/span&gt;&lt;/div&gt;&lt;div style=&quot;&quot;&gt;&lt;br&gt;&lt;/div&gt;&lt;/span&gt;&lt;span style=&quot;&quot;&gt;&lt;div style=&quot;&quot;&gt;&lt;span style=&quot;background-color: initial;&quot;&gt;msg_from:&lt;/span&gt;&lt;/div&gt;&lt;/span&gt;&lt;span style=&quot;&quot;&gt;&lt;div style=&quot;&quot;&gt;&lt;span style=&quot;background-color: initial;&quot;&gt;msg_to:&lt;/span&gt;&lt;/div&gt;&lt;/span&gt;&lt;span style=&quot;&quot;&gt;&lt;div style=&quot;&quot;&gt;&lt;span style=&quot;background-color: initial;&quot;&gt;content:&amp;nbsp;&lt;/span&gt;&lt;/div&gt;&lt;/span&gt;&lt;div style=&quot;&quot;&gt;&lt;br&gt;&lt;/div&gt;&lt;/blockquote&gt;&lt;div style=&quot;&quot;&gt;&lt;span style=&quot;&quot;&gt;&#9;&lt;/span&gt;&lt;span style=&quot;&quot;&gt;&#9;&lt;/span&gt;&lt;span style=&quot;&quot;&gt;&#9;&lt;/span&gt;&lt;span style=&quot;&quot;&gt;&#9;&lt;/span&gt;&lt;br&gt;&lt;/div&gt;&lt;div style=&quot;&quot;&gt;&lt;span style=&quot;background-color: initial;&quot;&gt;&lt;span style=&quot;&quot;&gt;&#9;&lt;/span&gt;&lt;span style=&quot;&quot;&gt;&#9;&lt;/span&gt;&lt;span style=&quot;&quot;&gt;&#9;&lt;/span&gt;}&lt;/span&gt;&lt;/div&gt;" style="text;html=1;align=left;verticalAlign=middle;resizable=0;points=[];autosize=1;strokeColor=none;fillColor=none;" parent="1" vertex="1">
                    <mxGeometry x="160" y="200" width="150" height="160" as="geometry"/>
                </mxCell>
                <mxCell id="WOLURt_JnOcae4hTJIM5-2" value="" style="endArrow=none;html=1;" parent="1" edge="1">
                    <mxGeometry width="50" height="50" relative="1" as="geometry">
                        <mxPoint x="440" y="520" as="sourcePoint"/>
                        <mxPoint x="440" y="140" as="targetPoint"/>
                    </mxGeometry>
                </mxCell>
                <mxCell id="WOLURt_JnOcae4hTJIM5-4" value="&lt;div style=&quot;color: rgb(225, 228, 232); background-color: rgb(36, 41, 46); font-family: Menlo, Monaco, &amp;quot;Courier New&amp;quot;, monospace; line-height: 18px;&quot;&gt;&lt;span style=&quot;color: #9ecbff;&quot;&gt;send_message&lt;/span&gt;&lt;/div&gt;" style="text;html=1;align=center;verticalAlign=middle;resizable=0;points=[];autosize=1;strokeColor=none;fillColor=none;" parent="1" vertex="1">
                    <mxGeometry x="185" y="160" width="110" height="30" as="geometry"/>
                </mxCell>
                <mxCell id="WOLURt_JnOcae4hTJIM5-5" value="" style="endArrow=none;html=1;" parent="1" target="6f-1xvgcGnBei8sqXpM6-1" edge="1">
                    <mxGeometry width="50" height="50" relative="1" as="geometry">
                        <mxPoint x="95" y="520" as="sourcePoint"/>
                        <mxPoint x="80" y="340" as="targetPoint"/>
                    </mxGeometry>
                </mxCell>
                <mxCell id="WOLURt_JnOcae4hTJIM5-6" value="" style="endArrow=classic;html=1;" parent="1" edge="1">
                    <mxGeometry width="50" height="50" relative="1" as="geometry">
                        <mxPoint x="440" y="460" as="sourcePoint"/>
                        <mxPoint x="100" y="460" as="targetPoint"/>
                    </mxGeometry>
                </mxCell>
                <mxCell id="WOLURt_JnOcae4hTJIM5-7" value="&lt;div style=&quot;text-align: left;&quot;&gt;&lt;span style=&quot;background-color: initial;&quot;&gt;200,&lt;/span&gt;&lt;/div&gt;&lt;div style=&quot;text-align: left;&quot;&gt;&lt;span style=&quot;background-color: initial;&quot;&gt;{&lt;/span&gt;&lt;/div&gt;&lt;div style=&quot;text-align: left;&quot;&gt;&lt;span style=&quot;background-color: initial;&quot;&gt;&lt;span style=&quot;white-space: pre;&quot;&gt;&#9;&lt;/span&gt;chat_channel_id:&amp;nbsp;&lt;br&gt;&lt;/span&gt;&lt;/div&gt;&lt;div style=&quot;text-align: left;&quot;&gt;&lt;span style=&quot;white-space: pre;&quot;&gt;&#9;&lt;/span&gt;msg_id:&amp;nbsp;&lt;/div&gt;&lt;div style=&quot;text-align: left;&quot;&gt;&lt;span style=&quot;background-color: initial;&quot;&gt;}&lt;/span&gt;&lt;/div&gt;" style="text;html=1;align=center;verticalAlign=middle;resizable=0;points=[];autosize=1;strokeColor=none;fillColor=none;" parent="1" vertex="1">
                    <mxGeometry x="125" y="450" width="140" height="90" as="geometry"/>
                </mxCell>
                <mxCell id="WOLURt_JnOcae4hTJIM5-9" value="&lt;div style=&quot;text-align: left;&quot;&gt;&lt;span style=&quot;background-color: initial;&quot;&gt;400,&lt;/span&gt;&lt;/div&gt;&lt;div style=&quot;text-align: left;&quot;&gt;&lt;span style=&quot;background-color: initial;&quot;&gt;{&lt;/span&gt;&lt;/div&gt;&lt;div style=&quot;text-align: left;&quot;&gt;&lt;span style=&quot;white-space: pre;&quot;&gt;&#9;&lt;/span&gt;error: ''&amp;nbsp;&lt;/div&gt;&lt;div style=&quot;text-align: left;&quot;&gt;&lt;span style=&quot;background-color: initial;&quot;&gt;}&lt;/span&gt;&lt;/div&gt;" style="text;html=1;align=center;verticalAlign=middle;resizable=0;points=[];autosize=1;strokeColor=none;fillColor=none;" parent="1" vertex="1">
                    <mxGeometry x="265" y="460" width="90" height="70" as="geometry"/>
                </mxCell>
                <mxCell id="WOLURt_JnOcae4hTJIM5-11" style="edgeStyle=none;html=1;entryX=0;entryY=0.75;entryDx=0;entryDy=0;" parent="1" source="WOLURt_JnOcae4hTJIM5-12" target="WOLURt_JnOcae4hTJIM5-15" edge="1">
                    <mxGeometry relative="1" as="geometry"/>
                </mxCell>
                <mxCell id="WOLURt_JnOcae4hTJIM5-12" value="User&lt;br&gt;" style="shape=umlActor;verticalLabelPosition=bottom;verticalAlign=top;html=1;outlineConnect=0;" parent="1" vertex="1">
                    <mxGeometry x="560" y="90" width="30" height="60" as="geometry"/>
                </mxCell>
                <mxCell id="WOLURt_JnOcae4hTJIM5-13" value="" style="group" parent="1" vertex="1" connectable="0">
                    <mxGeometry x="850" y="100" width="140" height="50" as="geometry"/>
                </mxCell>
                <mxCell id="WOLURt_JnOcae4hTJIM5-14" value="" style="group" parent="WOLURt_JnOcae4hTJIM5-13" vertex="1" connectable="0">
                    <mxGeometry width="120" height="30" as="geometry"/>
                </mxCell>
                <mxCell id="WOLURt_JnOcae4hTJIM5-15" value="chat server" style="rounded=0;whiteSpace=wrap;html=1;" parent="WOLURt_JnOcae4hTJIM5-14" vertex="1">
                    <mxGeometry width="120" height="30" as="geometry"/>
                </mxCell>
                <mxCell id="WOLURt_JnOcae4hTJIM5-16" value="" style="sketch=0;aspect=fixed;html=1;points=[];align=center;image;fontSize=12;image=img/lib/mscae/Docker.svg;" parent="WOLURt_JnOcae4hTJIM5-14" vertex="1">
                    <mxGeometry width="24.39" height="20" as="geometry"/>
                </mxCell>
                <mxCell id="WOLURt_JnOcae4hTJIM5-17" value="" style="group" parent="WOLURt_JnOcae4hTJIM5-13" vertex="1" connectable="0">
                    <mxGeometry x="10" y="10" width="120" height="30" as="geometry"/>
                </mxCell>
                <mxCell id="WOLURt_JnOcae4hTJIM5-18" value="chat server" style="rounded=0;whiteSpace=wrap;html=1;" parent="WOLURt_JnOcae4hTJIM5-17" vertex="1">
                    <mxGeometry width="120" height="30" as="geometry"/>
                </mxCell>
                <mxCell id="WOLURt_JnOcae4hTJIM5-19" value="" style="sketch=0;aspect=fixed;html=1;points=[];align=center;image;fontSize=12;image=img/lib/mscae/Docker.svg;" parent="WOLURt_JnOcae4hTJIM5-17" vertex="1">
                    <mxGeometry width="24.39" height="20" as="geometry"/>
                </mxCell>
                <mxCell id="WOLURt_JnOcae4hTJIM5-20" value="" style="group" parent="WOLURt_JnOcae4hTJIM5-13" vertex="1" connectable="0">
                    <mxGeometry x="20" y="20" width="120" height="30" as="geometry"/>
                </mxCell>
                <mxCell id="WOLURt_JnOcae4hTJIM5-21" value="chat server" style="rounded=0;whiteSpace=wrap;html=1;" parent="WOLURt_JnOcae4hTJIM5-20" vertex="1">
                    <mxGeometry width="120" height="30" as="geometry"/>
                </mxCell>
                <mxCell id="WOLURt_JnOcae4hTJIM5-22" value="" style="sketch=0;aspect=fixed;html=1;points=[];align=center;image;fontSize=12;image=img/lib/mscae/Docker.svg;" parent="WOLURt_JnOcae4hTJIM5-20" vertex="1">
                    <mxGeometry width="24.39" height="20" as="geometry"/>
                </mxCell>
                <mxCell id="WOLURt_JnOcae4hTJIM5-23" style="edgeStyle=none;html=1;" parent="1" edge="1">
                    <mxGeometry relative="1" as="geometry">
                        <mxPoint x="920" y="205" as="targetPoint"/>
                        <mxPoint x="580" y="205" as="sourcePoint"/>
                    </mxGeometry>
                </mxCell>
                <mxCell id="WOLURt_JnOcae4hTJIM5-24" value="&lt;div style=&quot;&quot;&gt;&lt;span style=&quot;background-color: initial;&quot;&gt;{&lt;/span&gt;&lt;/div&gt;&lt;div style=&quot;&quot;&gt;&lt;span style=&quot;background-color: initial;&quot;&gt;&lt;br&gt;&lt;/span&gt;&lt;/div&gt;&lt;blockquote style=&quot;margin: 0 0 0 40px; border: none; padding: 0px;&quot;&gt;&lt;span style=&quot;background-color: initial;&quot;&gt;&lt;div style=&quot;&quot;&gt;&lt;span style=&quot;background-color: initial;&quot;&gt;chat_channel_id:&lt;/span&gt;&lt;/div&gt;&lt;/span&gt;&lt;span style=&quot;&quot;&gt;&lt;div style=&quot;&quot;&gt;&lt;span style=&quot;background-color: initial;&quot;&gt;skip:&lt;/span&gt;&lt;/div&gt;&lt;/span&gt;&lt;span style=&quot;&quot;&gt;&lt;div style=&quot;&quot;&gt;&lt;span style=&quot;background-color: initial;&quot;&gt;limit:&lt;/span&gt;&lt;span style=&quot;background-color: initial;&quot;&gt;&amp;nbsp;&lt;/span&gt;&lt;/div&gt;&lt;/span&gt;&lt;div style=&quot;&quot;&gt;&lt;br&gt;&lt;/div&gt;&lt;/blockquote&gt;&lt;div style=&quot;&quot;&gt;&lt;span style=&quot;&quot;&gt;&#9;&lt;/span&gt;&lt;span style=&quot;&quot;&gt;&#9;&lt;/span&gt;&lt;span style=&quot;&quot;&gt;&#9;&lt;/span&gt;&lt;span style=&quot;&quot;&gt;&#9;&lt;/span&gt;&lt;br&gt;&lt;/div&gt;&lt;div style=&quot;&quot;&gt;&lt;span style=&quot;background-color: initial;&quot;&gt;&lt;span style=&quot;&quot;&gt;&#9;&lt;/span&gt;&lt;span style=&quot;&quot;&gt;&#9;&lt;/span&gt;&lt;span style=&quot;&quot;&gt;&#9;&lt;/span&gt;}&lt;/span&gt;&lt;/div&gt;" style="text;html=1;align=left;verticalAlign=middle;resizable=0;points=[];autosize=1;strokeColor=none;fillColor=none;" parent="1" vertex="1">
                    <mxGeometry x="640" y="225" width="150" height="130" as="geometry"/>
                </mxCell>
                <mxCell id="WOLURt_JnOcae4hTJIM5-25" value="" style="endArrow=none;html=1;" parent="1" edge="1">
                    <mxGeometry width="50" height="50" relative="1" as="geometry">
                        <mxPoint x="920" y="530" as="sourcePoint"/>
                        <mxPoint x="920" y="150" as="targetPoint"/>
                    </mxGeometry>
                </mxCell>
                <mxCell id="WOLURt_JnOcae4hTJIM5-27" value="" style="endArrow=none;html=1;" parent="1" target="WOLURt_JnOcae4hTJIM5-12" edge="1">
                    <mxGeometry width="50" height="50" relative="1" as="geometry">
                        <mxPoint x="575" y="530" as="sourcePoint"/>
                        <mxPoint x="560" y="350" as="targetPoint"/>
                    </mxGeometry>
                </mxCell>
                <mxCell id="WOLURt_JnOcae4hTJIM5-28" value="" style="endArrow=classic;html=1;" parent="1" edge="1">
                    <mxGeometry width="50" height="50" relative="1" as="geometry">
                        <mxPoint x="920" y="400" as="sourcePoint"/>
                        <mxPoint x="580" y="400" as="targetPoint"/>
                    </mxGeometry>
                </mxCell>
                <mxCell id="WOLURt_JnOcae4hTJIM5-29" value="&lt;div style=&quot;text-align: left;&quot;&gt;&lt;span style=&quot;background-color: initial;&quot;&gt;200,&lt;/span&gt;&lt;/div&gt;&lt;div style=&quot;text-align: left;&quot;&gt;&lt;span style=&quot;background-color: initial;&quot;&gt;{&lt;/span&gt;&lt;/div&gt;&lt;div style=&quot;text-align: left;&quot;&gt;&lt;span style=&quot;white-space: pre;&quot;&gt;&#9;&lt;/span&gt;chat_channel_id:&lt;/div&gt;&lt;div style=&quot;text-align: left;&quot;&gt;&lt;span style=&quot;white-space: pre;&quot;&gt;&#9;&lt;/span&gt;skip:&amp;nbsp;&lt;/div&gt;&lt;div style=&quot;text-align: left;&quot;&gt;&lt;span style=&quot;white-space: pre;&quot;&gt;&#9;&lt;/span&gt;limit:&lt;/div&gt;&lt;div style=&quot;text-align: left;&quot;&gt;&lt;span style=&quot;white-space: pre;&quot;&gt;&#9;&lt;/span&gt;messages: [&lt;/div&gt;&lt;div style=&quot;text-align: left;&quot;&gt;&lt;span style=&quot;white-space: pre;&quot;&gt;&#9;&lt;span style=&quot;white-space: pre;&quot;&gt;&#9;&lt;/span&gt;{&lt;/span&gt;&lt;/div&gt;&lt;div style=&quot;text-align: left;&quot;&gt;&lt;span style=&quot;white-space: pre;&quot;&gt;&#9;&lt;/span&gt;&lt;span style=&quot;white-space: pre;&quot;&gt;&#9;&lt;/span&gt;&lt;span style=&quot;white-space: pre;&quot;&gt;&#9;&lt;/span&gt;msg_id:&lt;/div&gt;&lt;div style=&quot;text-align: left;&quot;&gt;&lt;span style=&quot;white-space: pre;&quot;&gt;&#9;&lt;/span&gt;&lt;span style=&quot;white-space: pre;&quot;&gt;&#9;&lt;/span&gt;&lt;span style=&quot;white-space: pre;&quot;&gt;&#9;&lt;/span&gt;msg_from:&lt;br&gt;&lt;/div&gt;&lt;div style=&quot;text-align: left;&quot;&gt;&lt;span style=&quot;white-space: pre;&quot;&gt;&#9;&lt;/span&gt;&lt;span style=&quot;white-space: pre;&quot;&gt;&#9;&lt;/span&gt;&lt;span style=&quot;white-space: pre;&quot;&gt;&#9;&lt;/span&gt;msg_to:&lt;br&gt;&lt;/div&gt;&lt;div style=&quot;text-align: left;&quot;&gt;&lt;span style=&quot;white-space: pre;&quot;&gt;&#9;&lt;/span&gt;&lt;span style=&quot;white-space: pre;&quot;&gt;&#9;&lt;/span&gt;&lt;span style=&quot;white-space: pre;&quot;&gt;&#9;&lt;/span&gt;content:&lt;br&gt;&lt;/div&gt;&lt;div style=&quot;text-align: left;&quot;&gt;&lt;span style=&quot;white-space: pre;&quot;&gt;&#9;&lt;/span&gt;&lt;span style=&quot;white-space: pre;&quot;&gt;&#9;&lt;/span&gt;&lt;span style=&quot;white-space: pre;&quot;&gt;&#9;&lt;/span&gt;created_at:&amp;nbsp;&lt;br&gt;&lt;/div&gt;&lt;div style=&quot;text-align: left;&quot;&gt;&lt;span style=&quot;white-space: pre;&quot;&gt;&#9;&lt;/span&gt;&lt;span style=&quot;white-space: pre;&quot;&gt;&#9;&lt;/span&gt;}&lt;/div&gt;&lt;div style=&quot;text-align: left;&quot;&gt;&lt;span style=&quot;white-space: pre;&quot;&gt;&#9;&lt;/span&gt;]&lt;span style=&quot;background-color: initial;&quot;&gt;&amp;nbsp;&lt;/span&gt;&lt;/div&gt;&lt;div style=&quot;text-align: left;&quot;&gt;&lt;span style=&quot;background-color: initial;&quot;&gt;}&lt;/span&gt;&lt;/div&gt;" style="text;html=1;align=center;verticalAlign=middle;resizable=0;points=[];autosize=1;strokeColor=none;fillColor=none;" parent="1" vertex="1">
                    <mxGeometry x="605" y="400" width="170" height="230" as="geometry"/>
                </mxCell>
                <mxCell id="WOLURt_JnOcae4hTJIM5-30" value="&lt;div style=&quot;text-align: left;&quot;&gt;&lt;span style=&quot;background-color: initial;&quot;&gt;400,&lt;/span&gt;&lt;/div&gt;&lt;div style=&quot;text-align: left;&quot;&gt;&lt;span style=&quot;background-color: initial;&quot;&gt;{&lt;/span&gt;&lt;/div&gt;&lt;div style=&quot;text-align: left;&quot;&gt;&lt;span style=&quot;white-space: pre;&quot;&gt;&#9;&lt;/span&gt;error: ''&amp;nbsp;&lt;/div&gt;&lt;div style=&quot;text-align: left;&quot;&gt;&lt;span style=&quot;background-color: initial;&quot;&gt;}&lt;/span&gt;&lt;/div&gt;" style="text;html=1;align=center;verticalAlign=middle;resizable=0;points=[];autosize=1;strokeColor=none;fillColor=none;" parent="1" vertex="1">
                    <mxGeometry x="790" y="400" width="90" height="70" as="geometry"/>
                </mxCell>
                <mxCell id="WOLURt_JnOcae4hTJIM5-31" value="&lt;div style=&quot;color: rgb(225, 228, 232); background-color: rgb(36, 41, 46); font-family: Menlo, Monaco, &amp;quot;Courier New&amp;quot;, monospace; line-height: 18px;&quot;&gt;&lt;span style=&quot;color: #9ecbff;&quot;&gt;delete_message&lt;/span&gt;&lt;/div&gt;" style="text;html=1;align=center;verticalAlign=middle;resizable=0;points=[];autosize=1;strokeColor=none;fillColor=none;" parent="1" vertex="1">
                    <mxGeometry x="1195" y="170" width="120" height="30" as="geometry"/>
                </mxCell>
                <mxCell id="WOLURt_JnOcae4hTJIM5-32" style="edgeStyle=none;html=1;entryX=0;entryY=0.75;entryDx=0;entryDy=0;" parent="1" source="WOLURt_JnOcae4hTJIM5-33" target="WOLURt_JnOcae4hTJIM5-36" edge="1">
                    <mxGeometry relative="1" as="geometry"/>
                </mxCell>
                <mxCell id="WOLURt_JnOcae4hTJIM5-33" value="User&lt;br&gt;" style="shape=umlActor;verticalLabelPosition=bottom;verticalAlign=top;html=1;outlineConnect=0;" parent="1" vertex="1">
                    <mxGeometry x="1070" y="90" width="30" height="60" as="geometry"/>
                </mxCell>
                <mxCell id="WOLURt_JnOcae4hTJIM5-34" value="" style="group" parent="1" vertex="1" connectable="0">
                    <mxGeometry x="1360" y="100" width="140" height="50" as="geometry"/>
                </mxCell>
                <mxCell id="WOLURt_JnOcae4hTJIM5-35" value="" style="group" parent="WOLURt_JnOcae4hTJIM5-34" vertex="1" connectable="0">
                    <mxGeometry width="120" height="30" as="geometry"/>
                </mxCell>
                <mxCell id="WOLURt_JnOcae4hTJIM5-36" value="chat server" style="rounded=0;whiteSpace=wrap;html=1;" parent="WOLURt_JnOcae4hTJIM5-35" vertex="1">
                    <mxGeometry width="120" height="30" as="geometry"/>
                </mxCell>
                <mxCell id="WOLURt_JnOcae4hTJIM5-37" value="" style="sketch=0;aspect=fixed;html=1;points=[];align=center;image;fontSize=12;image=img/lib/mscae/Docker.svg;" parent="WOLURt_JnOcae4hTJIM5-35" vertex="1">
                    <mxGeometry width="24.39" height="20" as="geometry"/>
                </mxCell>
                <mxCell id="WOLURt_JnOcae4hTJIM5-38" value="" style="group" parent="WOLURt_JnOcae4hTJIM5-34" vertex="1" connectable="0">
                    <mxGeometry x="10" y="10" width="120" height="30" as="geometry"/>
                </mxCell>
                <mxCell id="WOLURt_JnOcae4hTJIM5-39" value="chat server" style="rounded=0;whiteSpace=wrap;html=1;" parent="WOLURt_JnOcae4hTJIM5-38" vertex="1">
                    <mxGeometry width="120" height="30" as="geometry"/>
                </mxCell>
                <mxCell id="WOLURt_JnOcae4hTJIM5-40" value="" style="sketch=0;aspect=fixed;html=1;points=[];align=center;image;fontSize=12;image=img/lib/mscae/Docker.svg;" parent="WOLURt_JnOcae4hTJIM5-38" vertex="1">
                    <mxGeometry width="24.39" height="20" as="geometry"/>
                </mxCell>
                <mxCell id="WOLURt_JnOcae4hTJIM5-41" value="" style="group" parent="WOLURt_JnOcae4hTJIM5-34" vertex="1" connectable="0">
                    <mxGeometry x="20" y="20" width="120" height="30" as="geometry"/>
                </mxCell>
                <mxCell id="WOLURt_JnOcae4hTJIM5-42" value="chat server" style="rounded=0;whiteSpace=wrap;html=1;" parent="WOLURt_JnOcae4hTJIM5-41" vertex="1">
                    <mxGeometry width="120" height="30" as="geometry"/>
                </mxCell>
                <mxCell id="WOLURt_JnOcae4hTJIM5-43" value="" style="sketch=0;aspect=fixed;html=1;points=[];align=center;image;fontSize=12;image=img/lib/mscae/Docker.svg;" parent="WOLURt_JnOcae4hTJIM5-41" vertex="1">
                    <mxGeometry width="24.39" height="20" as="geometry"/>
                </mxCell>
                <mxCell id="WOLURt_JnOcae4hTJIM5-44" style="edgeStyle=none;html=1;" parent="1" edge="1">
                    <mxGeometry relative="1" as="geometry">
                        <mxPoint x="1430" y="205.0000000000001" as="targetPoint"/>
                        <mxPoint x="1090" y="205.0000000000001" as="sourcePoint"/>
                    </mxGeometry>
                </mxCell>
                <mxCell id="WOLURt_JnOcae4hTJIM5-45" value="&lt;div style=&quot;&quot;&gt;&lt;span style=&quot;background-color: initial;&quot;&gt;{&lt;/span&gt;&lt;/div&gt;&lt;div style=&quot;&quot;&gt;&lt;span style=&quot;background-color: initial;&quot;&gt;&lt;br&gt;&lt;/span&gt;&lt;/div&gt;&lt;blockquote style=&quot;margin: 0 0 0 40px; border: none; padding: 0px;&quot;&gt;&lt;span style=&quot;background-color: initial;&quot;&gt;&lt;div style=&quot;&quot;&gt;&lt;span style=&quot;background-color: initial;&quot;&gt;chat_channel_id:&lt;/span&gt;&lt;/div&gt;&lt;/span&gt;&lt;span style=&quot;&quot;&gt;&lt;div style=&quot;&quot;&gt;&lt;span style=&quot;background-color: initial;&quot;&gt;msg_ids:&lt;/span&gt;&lt;/div&gt;&lt;div style=&quot;&quot;&gt;&lt;span style=&quot;background-color: initial;&quot;&gt;&lt;span style=&quot;white-space: pre;&quot;&gt;&#9;&lt;/span&gt;[]&lt;/span&gt;&lt;span style=&quot;background-color: initial;&quot;&gt;&amp;nbsp;&lt;/span&gt;&lt;/div&gt;&lt;/span&gt;&lt;div style=&quot;&quot;&gt;&lt;br&gt;&lt;/div&gt;&lt;/blockquote&gt;&lt;div style=&quot;&quot;&gt;&lt;span style=&quot;&quot;&gt;&#9;&lt;/span&gt;&lt;span style=&quot;&quot;&gt;&#9;&lt;/span&gt;&lt;span style=&quot;&quot;&gt;&#9;&lt;/span&gt;&lt;span style=&quot;&quot;&gt;&#9;&lt;/span&gt;&lt;br&gt;&lt;/div&gt;&lt;div style=&quot;&quot;&gt;&lt;span style=&quot;background-color: initial;&quot;&gt;&lt;span style=&quot;&quot;&gt;&#9;&lt;/span&gt;&lt;span style=&quot;&quot;&gt;&#9;&lt;/span&gt;&lt;span style=&quot;&quot;&gt;&#9;&lt;/span&gt;}&lt;/span&gt;&lt;/div&gt;" style="text;html=1;align=left;verticalAlign=middle;resizable=0;points=[];autosize=1;strokeColor=none;fillColor=none;" parent="1" vertex="1">
                    <mxGeometry x="1150" y="225" width="150" height="130" as="geometry"/>
                </mxCell>
                <mxCell id="WOLURt_JnOcae4hTJIM5-46" value="" style="endArrow=none;html=1;" parent="1" edge="1">
                    <mxGeometry width="50" height="50" relative="1" as="geometry">
                        <mxPoint x="1430" y="530" as="sourcePoint"/>
                        <mxPoint x="1430" y="150.0000000000001" as="targetPoint"/>
                    </mxGeometry>
                </mxCell>
                <mxCell id="WOLURt_JnOcae4hTJIM5-47" value="" style="endArrow=none;html=1;" parent="1" target="WOLURt_JnOcae4hTJIM5-33" edge="1">
                    <mxGeometry width="50" height="50" relative="1" as="geometry">
                        <mxPoint x="1085" y="530" as="sourcePoint"/>
                        <mxPoint x="1070" y="350" as="targetPoint"/>
                    </mxGeometry>
                </mxCell>
                <mxCell id="WOLURt_JnOcae4hTJIM5-48" value="" style="endArrow=classic;html=1;" parent="1" edge="1">
                    <mxGeometry width="50" height="50" relative="1" as="geometry">
                        <mxPoint x="1430" y="400" as="sourcePoint"/>
                        <mxPoint x="1090" y="400" as="targetPoint"/>
                    </mxGeometry>
                </mxCell>
                <mxCell id="WOLURt_JnOcae4hTJIM5-49" value="&lt;div style=&quot;text-align: left;&quot;&gt;&lt;span style=&quot;background-color: initial;&quot;&gt;200&lt;/span&gt;&lt;/div&gt;" style="text;html=1;align=center;verticalAlign=middle;resizable=0;points=[];autosize=1;strokeColor=none;fillColor=none;" parent="1" vertex="1">
                    <mxGeometry x="1140" y="400" width="40" height="30" as="geometry"/>
                </mxCell>
                <mxCell id="WOLURt_JnOcae4hTJIM5-50" value="&lt;div style=&quot;text-align: left;&quot;&gt;&lt;span style=&quot;background-color: initial;&quot;&gt;400,&lt;/span&gt;&lt;/div&gt;&lt;div style=&quot;text-align: left;&quot;&gt;&lt;span style=&quot;background-color: initial;&quot;&gt;{&lt;/span&gt;&lt;/div&gt;&lt;div style=&quot;text-align: left;&quot;&gt;&lt;span style=&quot;white-space: pre;&quot;&gt;&#9;&lt;/span&gt;error: ''&amp;nbsp;&lt;/div&gt;&lt;div style=&quot;text-align: left;&quot;&gt;&lt;span style=&quot;background-color: initial;&quot;&gt;}&lt;/span&gt;&lt;/div&gt;" style="text;html=1;align=center;verticalAlign=middle;resizable=0;points=[];autosize=1;strokeColor=none;fillColor=none;" parent="1" vertex="1">
                    <mxGeometry x="1300" y="400" width="90" height="70" as="geometry"/>
                </mxCell>
                <mxCell id="s2UJ-VjSd0leQF9_NYhQ-1" style="edgeStyle=none;html=1;entryX=0;entryY=0.75;entryDx=0;entryDy=0;" parent="1" source="s2UJ-VjSd0leQF9_NYhQ-2" target="s2UJ-VjSd0leQF9_NYhQ-5" edge="1">
                    <mxGeometry relative="1" as="geometry"/>
                </mxCell>
                <mxCell id="s2UJ-VjSd0leQF9_NYhQ-2" value="User&lt;br&gt;" style="shape=umlActor;verticalLabelPosition=bottom;verticalAlign=top;html=1;outlineConnect=0;" parent="1" vertex="1">
                    <mxGeometry x="80" y="680" width="30" height="60" as="geometry"/>
                </mxCell>
                <mxCell id="s2UJ-VjSd0leQF9_NYhQ-3" value="" style="group" parent="1" vertex="1" connectable="0">
                    <mxGeometry x="370" y="690" width="140" height="50" as="geometry"/>
                </mxCell>
                <mxCell id="s2UJ-VjSd0leQF9_NYhQ-4" value="" style="group" parent="s2UJ-VjSd0leQF9_NYhQ-3" vertex="1" connectable="0">
                    <mxGeometry width="120" height="30" as="geometry"/>
                </mxCell>
                <mxCell id="s2UJ-VjSd0leQF9_NYhQ-5" value="chat server" style="rounded=0;whiteSpace=wrap;html=1;" parent="s2UJ-VjSd0leQF9_NYhQ-4" vertex="1">
                    <mxGeometry width="120" height="30" as="geometry"/>
                </mxCell>
                <mxCell id="s2UJ-VjSd0leQF9_NYhQ-6" value="" style="sketch=0;aspect=fixed;html=1;points=[];align=center;image;fontSize=12;image=img/lib/mscae/Docker.svg;" parent="s2UJ-VjSd0leQF9_NYhQ-4" vertex="1">
                    <mxGeometry width="24.39" height="20" as="geometry"/>
                </mxCell>
                <mxCell id="s2UJ-VjSd0leQF9_NYhQ-7" value="" style="group" parent="s2UJ-VjSd0leQF9_NYhQ-3" vertex="1" connectable="0">
                    <mxGeometry x="10" y="10" width="120" height="30" as="geometry"/>
                </mxCell>
                <mxCell id="s2UJ-VjSd0leQF9_NYhQ-8" value="chat server" style="rounded=0;whiteSpace=wrap;html=1;" parent="s2UJ-VjSd0leQF9_NYhQ-7" vertex="1">
                    <mxGeometry width="120" height="30" as="geometry"/>
                </mxCell>
                <mxCell id="s2UJ-VjSd0leQF9_NYhQ-9" value="" style="sketch=0;aspect=fixed;html=1;points=[];align=center;image;fontSize=12;image=img/lib/mscae/Docker.svg;" parent="s2UJ-VjSd0leQF9_NYhQ-7" vertex="1">
                    <mxGeometry width="24.39" height="20" as="geometry"/>
                </mxCell>
                <mxCell id="s2UJ-VjSd0leQF9_NYhQ-10" value="" style="group" parent="s2UJ-VjSd0leQF9_NYhQ-3" vertex="1" connectable="0">
                    <mxGeometry x="20" y="20" width="120" height="30" as="geometry"/>
                </mxCell>
                <mxCell id="s2UJ-VjSd0leQF9_NYhQ-11" value="chat server" style="rounded=0;whiteSpace=wrap;html=1;" parent="s2UJ-VjSd0leQF9_NYhQ-10" vertex="1">
                    <mxGeometry width="120" height="30" as="geometry"/>
                </mxCell>
                <mxCell id="s2UJ-VjSd0leQF9_NYhQ-12" value="" style="sketch=0;aspect=fixed;html=1;points=[];align=center;image;fontSize=12;image=img/lib/mscae/Docker.svg;" parent="s2UJ-VjSd0leQF9_NYhQ-10" vertex="1">
                    <mxGeometry width="24.39" height="20" as="geometry"/>
                </mxCell>
                <mxCell id="s2UJ-VjSd0leQF9_NYhQ-13" style="edgeStyle=none;html=1;" parent="1" edge="1">
                    <mxGeometry relative="1" as="geometry">
                        <mxPoint x="439.9999999999998" y="795" as="targetPoint"/>
                        <mxPoint x="100" y="795" as="sourcePoint"/>
                    </mxGeometry>
                </mxCell>
                <mxCell id="s2UJ-VjSd0leQF9_NYhQ-14" value="&lt;div style=&quot;&quot;&gt;&lt;span style=&quot;background-color: initial;&quot;&gt;{&lt;/span&gt;&lt;/div&gt;&lt;div style=&quot;&quot;&gt;&lt;span style=&quot;background-color: initial;&quot;&gt;&lt;br&gt;&lt;/span&gt;&lt;/div&gt;&lt;blockquote style=&quot;margin: 0 0 0 40px; border: none; padding: 0px;&quot;&gt;&lt;span style=&quot;background-color: initial;&quot;&gt;&lt;div style=&quot;&quot;&gt;&lt;span style=&quot;background-color: initial;&quot;&gt;chat_channel_id:&lt;/span&gt;&lt;/div&gt;&lt;div style=&quot;&quot;&gt;members:&lt;/div&gt;&lt;/span&gt;&lt;div style=&quot;&quot;&gt;&lt;br&gt;&lt;/div&gt;&lt;/blockquote&gt;&lt;div style=&quot;&quot;&gt;&lt;span style=&quot;&quot;&gt;&#9;&lt;/span&gt;&lt;span style=&quot;&quot;&gt;&#9;&lt;/span&gt;&lt;span style=&quot;&quot;&gt;&#9;&lt;/span&gt;&lt;span style=&quot;&quot;&gt;&#9;&lt;/span&gt;&lt;br&gt;&lt;/div&gt;&lt;div style=&quot;&quot;&gt;&lt;span style=&quot;background-color: initial;&quot;&gt;&lt;span style=&quot;&quot;&gt;&#9;&lt;/span&gt;&lt;span style=&quot;&quot;&gt;&#9;&lt;/span&gt;&lt;span style=&quot;&quot;&gt;&#9;&lt;/span&gt;}&lt;/span&gt;&lt;/div&gt;" style="text;html=1;align=left;verticalAlign=middle;resizable=0;points=[];autosize=1;strokeColor=none;fillColor=none;" parent="1" vertex="1">
                    <mxGeometry x="160" y="825" width="150" height="110" as="geometry"/>
                </mxCell>
                <mxCell id="s2UJ-VjSd0leQF9_NYhQ-15" value="" style="endArrow=none;html=1;" parent="1" edge="1">
                    <mxGeometry width="50" height="50" relative="1" as="geometry">
                        <mxPoint x="439.9999999999998" y="1120" as="sourcePoint"/>
                        <mxPoint x="439.9999999999998" y="740" as="targetPoint"/>
                    </mxGeometry>
                </mxCell>
                <mxCell id="s2UJ-VjSd0leQF9_NYhQ-16" value="add member to channel" style="text;html=1;align=center;verticalAlign=middle;resizable=0;points=[];autosize=1;strokeColor=none;fillColor=none;" parent="1" vertex="1">
                    <mxGeometry x="165" y="760" width="150" height="30" as="geometry"/>
                </mxCell>
                <mxCell id="s2UJ-VjSd0leQF9_NYhQ-17" value="" style="endArrow=none;html=1;" parent="1" target="s2UJ-VjSd0leQF9_NYhQ-2" edge="1">
                    <mxGeometry width="50" height="50" relative="1" as="geometry">
                        <mxPoint x="95" y="1120" as="sourcePoint"/>
                        <mxPoint x="80" y="940" as="targetPoint"/>
                    </mxGeometry>
                </mxCell>
                <mxCell id="s2UJ-VjSd0leQF9_NYhQ-18" value="" style="endArrow=classic;html=1;" parent="1" edge="1">
                    <mxGeometry width="50" height="50" relative="1" as="geometry">
                        <mxPoint x="439.9999999999998" y="990" as="sourcePoint"/>
                        <mxPoint x="100" y="990" as="targetPoint"/>
                    </mxGeometry>
                </mxCell>
                <mxCell id="s2UJ-VjSd0leQF9_NYhQ-19" value="&lt;div style=&quot;text-align: left;&quot;&gt;&lt;span style=&quot;background-color: initial;&quot;&gt;200,&lt;/span&gt;&lt;/div&gt;&lt;div style=&quot;text-align: left;&quot;&gt;&lt;span style=&quot;background-color: initial;&quot;&gt;{&lt;/span&gt;&lt;/div&gt;&lt;div style=&quot;text-align: left;&quot;&gt;&lt;span style=&quot;white-space: pre;&quot;&gt;&#9;&lt;/span&gt;members:&amp;nbsp;&lt;/div&gt;&lt;div style=&quot;text-align: left;&quot;&gt;&lt;span style=&quot;background-color: initial;&quot;&gt;}&lt;/span&gt;&lt;/div&gt;" style="text;html=1;align=center;verticalAlign=middle;resizable=0;points=[];autosize=1;strokeColor=none;fillColor=none;" parent="1" vertex="1">
                    <mxGeometry x="155" y="990" width="110" height="70" as="geometry"/>
                </mxCell>
                <mxCell id="s2UJ-VjSd0leQF9_NYhQ-20" value="&lt;div style=&quot;text-align: left;&quot;&gt;&lt;span style=&quot;background-color: initial;&quot;&gt;400,&lt;/span&gt;&lt;/div&gt;&lt;div style=&quot;text-align: left;&quot;&gt;&lt;span style=&quot;background-color: initial;&quot;&gt;{&lt;/span&gt;&lt;/div&gt;&lt;div style=&quot;text-align: left;&quot;&gt;&lt;span style=&quot;white-space: pre;&quot;&gt;&#9;&lt;/span&gt;error: ''&amp;nbsp;&lt;/div&gt;&lt;div style=&quot;text-align: left;&quot;&gt;&lt;span style=&quot;background-color: initial;&quot;&gt;}&lt;/span&gt;&lt;/div&gt;" style="text;html=1;align=center;verticalAlign=middle;resizable=0;points=[];autosize=1;strokeColor=none;fillColor=none;" parent="1" vertex="1">
                    <mxGeometry x="265" y="990" width="90" height="70" as="geometry"/>
                </mxCell>
                <mxCell id="s2UJ-VjSd0leQF9_NYhQ-21" style="edgeStyle=none;html=1;entryX=0;entryY=0.75;entryDx=0;entryDy=0;" parent="1" source="s2UJ-VjSd0leQF9_NYhQ-22" target="s2UJ-VjSd0leQF9_NYhQ-25" edge="1">
                    <mxGeometry relative="1" as="geometry"/>
                </mxCell>
                <mxCell id="s2UJ-VjSd0leQF9_NYhQ-22" value="User&lt;br&gt;" style="shape=umlActor;verticalLabelPosition=bottom;verticalAlign=top;html=1;outlineConnect=0;" parent="1" vertex="1">
                    <mxGeometry x="560" y="680" width="30" height="60" as="geometry"/>
                </mxCell>
                <mxCell id="s2UJ-VjSd0leQF9_NYhQ-23" value="" style="group" parent="1" vertex="1" connectable="0">
                    <mxGeometry x="850" y="690" width="140" height="50" as="geometry"/>
                </mxCell>
                <mxCell id="s2UJ-VjSd0leQF9_NYhQ-24" value="" style="group" parent="s2UJ-VjSd0leQF9_NYhQ-23" vertex="1" connectable="0">
                    <mxGeometry width="120" height="30" as="geometry"/>
                </mxCell>
                <mxCell id="s2UJ-VjSd0leQF9_NYhQ-25" value="chat server" style="rounded=0;whiteSpace=wrap;html=1;" parent="s2UJ-VjSd0leQF9_NYhQ-24" vertex="1">
                    <mxGeometry width="120" height="30" as="geometry"/>
                </mxCell>
                <mxCell id="s2UJ-VjSd0leQF9_NYhQ-26" value="" style="sketch=0;aspect=fixed;html=1;points=[];align=center;image;fontSize=12;image=img/lib/mscae/Docker.svg;" parent="s2UJ-VjSd0leQF9_NYhQ-24" vertex="1">
                    <mxGeometry width="24.39" height="20" as="geometry"/>
                </mxCell>
                <mxCell id="s2UJ-VjSd0leQF9_NYhQ-27" value="" style="group" parent="s2UJ-VjSd0leQF9_NYhQ-23" vertex="1" connectable="0">
                    <mxGeometry x="10" y="10" width="120" height="30" as="geometry"/>
                </mxCell>
                <mxCell id="s2UJ-VjSd0leQF9_NYhQ-28" value="chat server" style="rounded=0;whiteSpace=wrap;html=1;" parent="s2UJ-VjSd0leQF9_NYhQ-27" vertex="1">
                    <mxGeometry width="120" height="30" as="geometry"/>
                </mxCell>
                <mxCell id="s2UJ-VjSd0leQF9_NYhQ-29" value="" style="sketch=0;aspect=fixed;html=1;points=[];align=center;image;fontSize=12;image=img/lib/mscae/Docker.svg;" parent="s2UJ-VjSd0leQF9_NYhQ-27" vertex="1">
                    <mxGeometry width="24.39" height="20" as="geometry"/>
                </mxCell>
                <mxCell id="s2UJ-VjSd0leQF9_NYhQ-30" value="" style="group" parent="s2UJ-VjSd0leQF9_NYhQ-23" vertex="1" connectable="0">
                    <mxGeometry x="20" y="20" width="120" height="30" as="geometry"/>
                </mxCell>
                <mxCell id="s2UJ-VjSd0leQF9_NYhQ-31" value="chat server" style="rounded=0;whiteSpace=wrap;html=1;" parent="s2UJ-VjSd0leQF9_NYhQ-30" vertex="1">
                    <mxGeometry width="120" height="30" as="geometry"/>
                </mxCell>
                <mxCell id="s2UJ-VjSd0leQF9_NYhQ-32" value="" style="sketch=0;aspect=fixed;html=1;points=[];align=center;image;fontSize=12;image=img/lib/mscae/Docker.svg;" parent="s2UJ-VjSd0leQF9_NYhQ-30" vertex="1">
                    <mxGeometry width="24.39" height="20" as="geometry"/>
                </mxCell>
                <mxCell id="s2UJ-VjSd0leQF9_NYhQ-33" style="edgeStyle=none;html=1;" parent="1" edge="1">
                    <mxGeometry relative="1" as="geometry">
                        <mxPoint x="919.9999999999998" y="795" as="targetPoint"/>
                        <mxPoint x="580" y="795" as="sourcePoint"/>
                    </mxGeometry>
                </mxCell>
                <mxCell id="s2UJ-VjSd0leQF9_NYhQ-34" value="&lt;div style=&quot;&quot;&gt;&lt;span style=&quot;background-color: initial;&quot;&gt;{&lt;/span&gt;&lt;/div&gt;&lt;div style=&quot;&quot;&gt;&lt;span style=&quot;background-color: initial;&quot;&gt;&lt;br&gt;&lt;/span&gt;&lt;/div&gt;&lt;blockquote style=&quot;margin: 0 0 0 40px; border: none; padding: 0px;&quot;&gt;&lt;span style=&quot;background-color: initial;&quot;&gt;&lt;div style=&quot;&quot;&gt;&lt;span style=&quot;background-color: initial;&quot;&gt;chat_channel_id:&lt;/span&gt;&lt;/div&gt;&lt;div style=&quot;&quot;&gt;members:&lt;/div&gt;&lt;/span&gt;&lt;div style=&quot;&quot;&gt;&lt;br&gt;&lt;/div&gt;&lt;/blockquote&gt;&lt;div style=&quot;&quot;&gt;&lt;span style=&quot;&quot;&gt;&#9;&lt;/span&gt;&lt;span style=&quot;&quot;&gt;&#9;&lt;/span&gt;&lt;span style=&quot;&quot;&gt;&#9;&lt;/span&gt;&lt;span style=&quot;&quot;&gt;&#9;&lt;/span&gt;&lt;br&gt;&lt;/div&gt;&lt;div style=&quot;&quot;&gt;&lt;span style=&quot;background-color: initial;&quot;&gt;&lt;span style=&quot;&quot;&gt;&#9;&lt;/span&gt;&lt;span style=&quot;&quot;&gt;&#9;&lt;/span&gt;&lt;span style=&quot;&quot;&gt;&#9;&lt;/span&gt;}&lt;/span&gt;&lt;/div&gt;" style="text;html=1;align=left;verticalAlign=middle;resizable=0;points=[];autosize=1;strokeColor=none;fillColor=none;" parent="1" vertex="1">
                    <mxGeometry x="640" y="825" width="150" height="110" as="geometry"/>
                </mxCell>
                <mxCell id="s2UJ-VjSd0leQF9_NYhQ-35" value="" style="endArrow=none;html=1;" parent="1" edge="1">
                    <mxGeometry width="50" height="50" relative="1" as="geometry">
                        <mxPoint x="919.9999999999998" y="1120" as="sourcePoint"/>
                        <mxPoint x="919.9999999999998" y="740" as="targetPoint"/>
                    </mxGeometry>
                </mxCell>
                <mxCell id="s2UJ-VjSd0leQF9_NYhQ-36" value="remove member from channel" style="text;html=1;align=center;verticalAlign=middle;resizable=0;points=[];autosize=1;strokeColor=none;fillColor=none;" parent="1" vertex="1">
                    <mxGeometry x="630" y="760" width="180" height="30" as="geometry"/>
                </mxCell>
                <mxCell id="s2UJ-VjSd0leQF9_NYhQ-37" value="" style="endArrow=none;html=1;" parent="1" target="s2UJ-VjSd0leQF9_NYhQ-22" edge="1">
                    <mxGeometry width="50" height="50" relative="1" as="geometry">
                        <mxPoint x="575" y="1120" as="sourcePoint"/>
                        <mxPoint x="560" y="940" as="targetPoint"/>
                    </mxGeometry>
                </mxCell>
                <mxCell id="s2UJ-VjSd0leQF9_NYhQ-38" value="" style="endArrow=classic;html=1;" parent="1" edge="1">
                    <mxGeometry width="50" height="50" relative="1" as="geometry">
                        <mxPoint x="919.9999999999998" y="990" as="sourcePoint"/>
                        <mxPoint x="580" y="990" as="targetPoint"/>
                    </mxGeometry>
                </mxCell>
                <mxCell id="s2UJ-VjSd0leQF9_NYhQ-39" value="&lt;div style=&quot;text-align: left;&quot;&gt;&lt;span style=&quot;background-color: initial;&quot;&gt;200,&lt;/span&gt;&lt;/div&gt;&lt;div style=&quot;text-align: left;&quot;&gt;&lt;span style=&quot;background-color: initial;&quot;&gt;{&lt;/span&gt;&lt;/div&gt;&lt;div style=&quot;text-align: left;&quot;&gt;&lt;span style=&quot;white-space: pre;&quot;&gt;&#9;&lt;/span&gt;success&amp;nbsp;&lt;/div&gt;&lt;div style=&quot;text-align: left;&quot;&gt;&lt;span style=&quot;background-color: initial;&quot;&gt;}&lt;/span&gt;&lt;/div&gt;" style="text;html=1;align=center;verticalAlign=middle;resizable=0;points=[];autosize=1;strokeColor=none;fillColor=none;" parent="1" vertex="1">
                    <mxGeometry x="640" y="990" width="100" height="70" as="geometry"/>
                </mxCell>
                <mxCell id="s2UJ-VjSd0leQF9_NYhQ-40" value="&lt;div style=&quot;text-align: left;&quot;&gt;&lt;span style=&quot;background-color: initial;&quot;&gt;400,&lt;/span&gt;&lt;/div&gt;&lt;div style=&quot;text-align: left;&quot;&gt;&lt;span style=&quot;background-color: initial;&quot;&gt;{&lt;/span&gt;&lt;/div&gt;&lt;div style=&quot;text-align: left;&quot;&gt;&lt;span style=&quot;white-space: pre;&quot;&gt;&#9;&lt;/span&gt;error: ''&amp;nbsp;&lt;/div&gt;&lt;div style=&quot;text-align: left;&quot;&gt;&lt;span style=&quot;background-color: initial;&quot;&gt;}&lt;/span&gt;&lt;/div&gt;" style="text;html=1;align=center;verticalAlign=middle;resizable=0;points=[];autosize=1;strokeColor=none;fillColor=none;" parent="1" vertex="1">
                    <mxGeometry x="745" y="990" width="90" height="70" as="geometry"/>
                </mxCell>
                <mxCell id="ZRy9fwknJXiTZ0wYOcPj-2" style="edgeStyle=none;html=1;" edge="1" parent="1" source="ZRy9fwknJXiTZ0wYOcPj-1">
                    <mxGeometry relative="1" as="geometry">
                        <mxPoint x="440" y="400" as="targetPoint"/>
                        <Array as="points">
                            <mxPoint x="470" y="390"/>
                        </Array>
                    </mxGeometry>
                </mxCell>
                <mxCell id="ZRy9fwknJXiTZ0wYOcPj-1" value="if chat_channel_id == &quot;&quot;&lt;br&gt;or chat_channel_id not exists in db" style="text;html=1;align=center;verticalAlign=middle;resizable=0;points=[];autosize=1;strokeColor=none;fillColor=none;" vertex="1" parent="1">
                    <mxGeometry x="330" y="340" width="210" height="40" as="geometry"/>
                </mxCell>
                <mxCell id="ZRy9fwknJXiTZ0wYOcPj-3" value="Create a new channel id" style="text;html=1;align=center;verticalAlign=middle;resizable=0;points=[];autosize=1;strokeColor=none;fillColor=none;" vertex="1" parent="1">
                    <mxGeometry x="385" y="395" width="150" height="30" as="geometry"/>
                </mxCell>
            </root>
        </mxGraphModel>
    </diagram>
</mxfile>